<svg version="1.2" overflow="visible" preserveAspectRatio="none" viewBox="0 0 50.599998474121094 50.70000076293945" xml:space="preserve" height="12" width="12" y="0px" x="0px" xmlns:xlink="http://www.w3.org/1999/xlink" xmlns="http://www.w3.org/2000/svg" id="Layer_1_1548255731256"><g transform="translate(1, 1)"><path d="M21.1,46c-0.9,0-1.7-0.3-2.4-0.8l-17.1-13c-1.8-1.3-2.1-3.8-0.8-5.6c1.3-1.8,3.8-2.1,5.6-0.8l13.7,10.4L41.3,4.4&#10;&#9;c1.2-1.8,3.7-2.4,5.5-1.1C48.7,4.5,49.2,7,48,8.8c0,0,0,0,0,0L24.4,44.2C23.7,45.3,22.4,46,21.1,46z" vector-effect="non-scaling-stroke" style="fill: rgb(53, 111, 207);"/></g></svg>