<svg xmlns="http://www.w3.org/2000/svg" version="1.2" overflow="visible" preserveAspectRatio="none" viewBox="0 0 24 24" width="14" height="14"><g><defs> </defs> <rect display="none" fill="#FFA400" width="24" height="24" style="fill: rgb(129, 129, 129);" vector-effect="non-scaling-stroke"/> <rect id="_x3C_Slice_x3E__109_" display="none" fill="none" width="24" height="24" style="fill: rgb(129, 129, 129);" vector-effect="non-scaling-stroke"/> <path fill-rule="evenodd" clip-rule="evenodd" d="M2,22c0,1.104,0.896,2,2,2h16c1.104,0,2-0.896,2-2V9H2V22z M17,12h2v9h-2V12z M11,12h2v9h-2V12z M5,12h2v9H5V12z M23,4h-6V2c0-1.104-0.896-2-2-2H9C7.896,0,7,0.896,7,2v2H1C0.447,4,0,4.447,0,5v1 c0,0.553,0.447,1,1,1h22c0.553,0,1-0.447,1-1V5C24,4.447,23.553,4,23,4z M15,4H9V2h6V4z" style="fill: rgb(129, 129, 129);" vector-effect="non-scaling-stroke"/> </g></svg>